<?xml version="1.0" encoding="UTF-8"?><svg id="Layer_1" xmlns="http://www.w3.org/2000/svg" viewBox="0 0 122.24 198.17"><defs><style>.cls-1{fill:#002b80;fill-rule:evenodd;}</style></defs><path class="cls-1" d="M50.46,50.52l-7.08,9.74c-3.55,4.88-2.45,13.54,2.4,17.04l13.12,9.47c2.25,1.63,2.43,3.24,1.36,4.95l1.91,1.42,6.64-9.2c4.1-5.69,3.75-13.42-2.34-17.86l-13.23-9.64c-1.58-1.15-1.75-2.77-.87-4.57l-1.91-1.36h0ZM61.81,7.43l-11.02,15.24c-5.17,7.15-3.29,19.35,3.77,24.53l18.11,13.29c3.67,2.69,4.15,9.56,1.48,13.08l1.54,1.15,12.49-17.58c5.61-7.89,5.28-19.55-3.52-25.95l-19.37-14.07c-2.71-1.97-4.06-5.32-1.81-8.51l-1.67-1.18h0ZM32.78,102.99h14.6l2.6,8.85h23.86l2.6-8.85h14.6l-1.91-6.51h-54.43l-1.91,6.51h0ZM11.65,0h98.95c6.41,0,11.65,5.24,11.65,11.65v174.88c0,6.4-5.24,11.65-11.65,11.65H11.65c-6.41,0-11.65-5.24-11.65-11.65V11.65C0,5.24,5.24,0,11.65,0h0ZM11.65.8h98.95c5.96,0,10.85,4.88,10.85,10.85v174.88c0,5.96-4.88,10.85-10.85,10.85H11.65c-5.97,0-10.85-4.88-10.85-10.85V11.65C.8,5.68,5.68.8,11.65.8h0ZM119.05,159.3v27.23c0,4.65-3.8,8.45-8.45,8.45H11.65c-4.65,0-8.45-3.8-8.45-8.45v-27.23h115.85ZM22.69,174.32l-4.34-10.83h-2.22l-4.37,10.83h2.45l.9-2.41h4.17l.9,2.41h2.51ZM18.5,169.85h-2.61l.73-1.97c.12-.32.23-.63.33-.93.1-.3.18-.55.24-.76.05.21.13.46.24.76.1.3.21.61.33.93l.73,1.97h0ZM32.33,165.26c-.67-.78-1.73-1.49-2.73-1.76-.43-.12-.92-.18-1.45-.18-.75,0-1.43.14-2.05.41-.62.27-1.15.65-1.6,1.14s-.79,1.08-1.04,1.76c-.25.69-.37,1.44-.37,2.27s.12,1.63.36,2.31c.24.69.58,1.27,1.02,1.76.44.48.96.86,1.57,1.12.61.26,1.29.39,2.04.39,1.38,0,3.77-.76,4.46-2.1l-1.62-1.44c-.46.73-1.9,1.39-2.77,1.39-.42,0-.8-.09-1.14-.26-.34-.18-.62-.42-.86-.73-.23-.31-.41-.67-.53-1.09-.12-.42-.18-.87-.18-1.35s.06-.97.18-1.38c.12-.42.29-.78.52-1.08.23-.3.51-.54.85-.71.34-.17.72-.26,1.14-.26.86,0,2.07.57,2.63,1.31l1.58-1.53h0ZM53.99,174.32l-2.53-4.12c.73-.27,1.54-.76,1.9-1.28.36-.52.55-1.19.55-2,0-.58-.1-1.08-.31-1.51-.21-.43-.49-.79-.85-1.08-.36-.29-.78-.5-1.26-.64-.48-.14-.98-.21-1.52-.21h-5.32v10.83h2.28v-3.9l2.03.09,2.39,3.81h2.63ZM51.56,166.97c0,.94-.54,1.41-1.63,1.41h-2.98v-2.79h2.98c.51,0,.91.11,1.2.32.29.21.43.56.43,1.06h0ZM63.58,174.32v-2.12h-5.89v-2.62h4.74v-2.1h-4.74v-1.87h5.64v-2.12h-7.93v10.83h8.17ZM74.53,168.91c0-.99-.14-1.83-.43-2.51-.29-.69-.69-1.25-1.19-1.68-.51-.43-1.1-.75-1.79-.94-.69-.19-1.44-.29-2.26-.29h-3.57v10.83h3.41c.73,0,1.44-.1,2.14-.31.7-.21,1.33-.53,1.87-.97.55-.44.99-1,1.32-1.69.33-.69.5-1.5.5-2.45h0ZM72.19,168.91c0,.5-.07.95-.21,1.35-.14.41-.35.76-.64,1.04-.28.29-.65.51-1.08.67-.44.16-.96.24-1.56.24h-1.12v-6.62h1.21c1.21,0,2.08.28,2.61.83.53.55.8,1.38.8,2.48h0ZM79.03,174.32v-10.83h-2.28v10.83h2.28ZM89.67,165.62v-2.14h-8.84v2.14h3.28v8.7h2.28v-8.7h3.28ZM110.26,168.91c0-.99-.14-1.83-.43-2.51-.29-.69-.68-1.25-1.19-1.68-.5-.43-1.1-.75-1.79-.94-.69-.19-1.44-.29-2.26-.29h-3.57v10.83h3.41c.73,0,1.44-.1,2.14-.31.7-.21,1.33-.53,1.87-.97.55-.44.99-1,1.32-1.69.33-.69.5-1.5.5-2.45h0ZM107.91,168.91c0,.5-.07.95-.21,1.35-.14.41-.35.76-.63,1.04-.28.29-.65.51-1.09.67-.44.16-.96.24-1.56.24h-1.13v-6.62h1.21c1.21,0,2.08.28,2.61.83.53.55.8,1.38.8,2.48h0ZM99.3,174.32v-2.12h-5.89v-2.62h4.74v-2.1h-4.74v-1.87h5.64v-2.12h-7.92v10.83h8.17ZM80.2,188.31v-2.12h-5.89v-2.62h4.74v-2.1h-4.74v-1.87h5.64v-2.12h-7.93v10.83h8.17ZM42.87,165.26c-.67-.78-1.73-1.49-2.73-1.76-.43-.12-.92-.18-1.45-.18-.75,0-1.44.14-2.05.41-.62.27-1.15.65-1.6,1.14-.45.49-.79,1.08-1.04,1.76-.25.69-.37,1.44-.37,2.27s.12,1.63.36,2.31c.24.69.58,1.27,1.02,1.76.44.48.96.86,1.57,1.12.61.26,1.29.39,2.04.39,1.38,0,3.78-.76,4.46-2.1l-1.62-1.44c-.46.73-1.9,1.39-2.77,1.39-.42,0-.8-.09-1.14-.26-.34-.18-.62-.42-.86-.73-.23-.31-.41-.67-.53-1.09-.12-.42-.18-.87-.18-1.35s.06-.97.18-1.38.29-.78.52-1.08c.23-.3.51-.54.85-.71.34-.17.72-.26,1.14-.26.86,0,2.07.57,2.63,1.31l1.58-1.53h0ZM33.54,184.81c0-.6-.15-1.09-.44-1.49-.3-.39-.67-.69-1.11-.88.37-.22.66-.5.87-.87.21-.36.31-.77.31-1.24,0-.93-.32-1.64-.95-2.13-.64-.49-1.49-.74-2.57-.74h-5.1v10.83h5.05c.59,0,1.13-.07,1.62-.22.49-.15.9-.37,1.25-.67.34-.29.61-.66.8-1.1.19-.44.29-.94.29-1.51h0ZM30.9,180.51c0,.3-.09.54-.28.74-.19.19-.51.29-.98.29h-2.94v-2.06h2.83c.49,0,.84.09,1.05.26.21.18.32.43.32.77h0ZM31.25,184.84c0,.43-.13.78-.39,1.03-.26.25-.66.38-1.2.38h-2.96v-2.8h2.96c1.06,0,1.59.46,1.59,1.39h0ZM44.03,183.53v-6.05h-2.22v6.08c0,.88-.2,1.56-.61,2.06s-.97.74-1.68.74-1.27-.25-1.67-.76c-.4-.5-.6-1.2-.6-2.07v-6.05h-2.22v6.08c0,.79.11,1.5.33,2.1.22.61.52,1.12.91,1.54.39.42.87.74,1.42.95.56.22,1.17.33,1.83.33,1.42,0,2.53-.43,3.32-1.29.79-.86,1.19-2.08,1.19-3.66h0ZM54.25,185.03c0-.59-.11-1.07-.33-1.46-.22-.38-.51-.7-.87-.94-.35-.25-.75-.44-1.19-.58-.44-.14-.88-.26-1.33-.36-.44-.1-.81-.2-1.1-.28-.29-.08-.51-.17-.68-.26-.17-.09-.29-.2-.36-.32-.07-.12-.1-.26-.1-.44,0-.12.03-.24.08-.36.05-.11.14-.22.27-.31.13-.09.29-.17.49-.22.2-.06.45-.08.75-.08.51,0,.97.1,1.37.29.41.19.79.47,1.15.83l1.6-1.52c-.53-.54-1.12-.95-1.77-1.25-.65-.3-1.41-.45-2.28-.45-.55,0-1.07.07-1.55.22-.48.14-.9.35-1.26.63-.36.27-.64.61-.85,1-.21.39-.31.84-.31,1.33,0,.54.08.99.25,1.35.17.36.41.66.71.9.31.24.68.43,1.1.59.43.15.9.29,1.41.4.52.11.94.22,1.27.33.33.1.58.21.75.32.17.11.29.24.36.36.06.13.1.28.1.46,0,.41-.16.71-.47.9-.31.19-.8.28-1.47.28-.54,0-1.05-.09-1.53-.29-.48-.19-.92-.51-1.31-.95l-1.6,1.39c.42.61,1.02,1.09,1.78,1.44.76.35,1.61.53,2.54.53.76,0,1.42-.08,1.96-.25.55-.16,1-.4,1.36-.7.36-.3.62-.67.79-1.09.17-.42.25-.89.25-1.41h0ZM58.28,188.31v-10.83h-2.22v10.83h2.22ZM69.6,188.31v-10.83h-2.19v4.58c0,.16,0,.35,0,.57,0,.23,0,.46,0,.7s0,.44,0,.64c0,.2,0,.35,0,.46-.07-.14-.19-.33-.34-.56-.15-.23-.3-.45-.44-.66l-3.94-5.73h-2.13v10.83h2.19v-4.77c0-.15,0-.35,0-.57,0-.23,0-.45,0-.68s0-.46,0-.66c0-.2,0-.35,0-.46.07.14.19.33.34.56.15.23.3.45.44.66l4.08,5.91h1.99ZM89.28,185.03c0-.59-.11-1.07-.33-1.46-.22-.38-.51-.7-.87-.94-.35-.25-.75-.44-1.19-.58-.44-.14-.88-.26-1.33-.36-.45-.1-.81-.2-1.1-.28-.29-.08-.51-.17-.68-.26-.17-.09-.29-.2-.36-.32-.07-.12-.1-.26-.1-.44,0-.12.03-.24.08-.36.05-.11.14-.22.27-.31.13-.09.29-.17.49-.22.2-.06.45-.08.75-.08.51,0,.97.1,1.38.29.41.19.79.47,1.15.83l1.61-1.52c-.53-.54-1.12-.95-1.77-1.25-.65-.3-1.41-.45-2.28-.45-.55,0-1.07.07-1.55.22-.48.14-.9.35-1.26.63-.36.27-.64.61-.85,1-.21.39-.31.84-.31,1.33,0,.54.08.99.25,1.35.17.36.41.66.71.9.31.24.68.43,1.11.59.43.15.9.29,1.41.4.52.11.94.22,1.27.33.33.1.58.21.76.32.17.11.29.24.36.36.06.13.09.28.09.46,0,.41-.16.71-.47.9-.31.19-.8.28-1.47.28-.54,0-1.05-.09-1.53-.29-.48-.19-.92-.51-1.31-.95l-1.61,1.39c.42.61,1.02,1.09,1.78,1.44.76.35,1.61.53,2.54.53.76,0,1.42-.08,1.96-.25.54-.16,1-.4,1.36-.7.36-.3.63-.67.79-1.09.17-.42.25-.89.25-1.41h0ZM98.84,185.03c0-.59-.11-1.07-.33-1.46-.22-.38-.51-.7-.87-.94-.36-.25-.75-.44-1.19-.58-.44-.14-.88-.26-1.33-.36-.44-.1-.81-.2-1.1-.28-.29-.08-.51-.17-.68-.26-.17-.09-.29-.2-.36-.32-.07-.12-.1-.26-.1-.44,0-.12.03-.24.08-.36.05-.11.14-.22.27-.31.13-.09.29-.17.49-.22.2-.06.45-.08.75-.08.51,0,.97.1,1.37.29.41.19.79.47,1.15.83l1.6-1.52c-.53-.54-1.12-.95-1.77-1.25-.65-.3-1.41-.45-2.28-.45-.55,0-1.07.07-1.55.22-.48.14-.9.35-1.26.63-.36.27-.64.61-.85,1-.21.39-.31.84-.31,1.33,0,.54.08.99.25,1.35.17.36.41.66.71.9.31.24.68.43,1.1.59.43.15.9.29,1.41.4.52.11.94.22,1.27.33.33.1.58.21.76.32.17.11.29.24.36.36.06.13.09.28.09.46,0,.41-.16.71-.47.9-.31.19-.8.28-1.47.28-.54,0-1.05-.09-1.53-.29-.48-.19-.92-.51-1.31-.95l-1.6,1.39c.42.61,1.02,1.09,1.78,1.44.76.35,1.61.53,2.54.53.76,0,1.42-.08,1.96-.25.55-.16,1-.4,1.36-.7.36-.3.62-.67.79-1.09.17-.42.25-.89.25-1.41h0ZM33.88,143.38h-8.75v-7.32h8.75c6.43,0,6.04,7.32,0,7.32h0ZM63.85,143.38h-8.75v-7.32h8.75c6.43,0,6.04,7.32,0,7.32h0ZM93.82,143.38h-8.75v-7.32h8.75c6.43,0,6.04,7.32,0,7.32h0ZM33.28,130.33h-8.15v-6.85h7.84c4.9,0,5.08,6.85.31,6.85h0ZM63.26,130.33h-8.15v-6.85h7.84c4.9,0,5.08,6.85.31,6.85h0ZM93.23,130.33h-8.15v-6.85h7.84c4.9,0,5.08,6.85.31,6.85h0ZM45.33,139.31c-.62-4.21-2.32-5.22-5.71-6.71,2.56-1.5,4.14-3.71,4.14-6.73,0-6.05-4.95-8.51-10.36-8.51h-15.1v32.1h14.96c6.39,0,13.16-2.79,12.07-10.14h0ZM75.3,139.31c-.62-4.21-2.32-5.22-5.71-6.71,2.56-1.5,4.14-3.71,4.14-6.73,0-6.05-4.95-8.51-10.36-8.51h-15.1v32.1h14.96c6.39,0,13.16-2.79,12.07-10.14h0ZM105.27,139.31c-.62-4.21-2.32-5.22-5.71-6.71,2.56-1.5,4.14-3.71,4.14-6.73,0-6.05-4.95-8.51-10.36-8.51h-15.1v32.1h14.95c6.39,0,13.16-2.79,12.07-10.14h0ZM108.17,148.4c0-.13-.02-.25-.05-.36-.04-.1-.09-.2-.18-.29-.08-.09-.19-.17-.33-.24-.14-.07-.31-.15-.52-.22-.19-.07-.34-.12-.46-.18-.12-.06-.21-.11-.27-.17-.06-.06-.11-.12-.13-.18-.02-.06-.03-.13-.03-.2s.01-.14.04-.2c.03-.06.07-.12.13-.17.06-.05.13-.09.22-.12.09-.03.2-.04.33-.04.19,0,.35.03.49.08.14.06.27.14.41.25l.27-.32c-.16-.12-.32-.21-.5-.28-.18-.07-.39-.1-.64-.1-.17,0-.33.02-.48.06-.14.04-.27.1-.37.18-.1.08-.18.18-.24.29-.06.11-.08.24-.08.39,0,.13.02.25.05.35.04.1.1.19.18.27.08.08.19.16.33.23.14.07.31.14.51.21.17.06.31.12.42.17.11.06.2.12.27.17.07.06.12.12.15.19.03.07.04.14.04.23,0,.19-.07.34-.21.45-.14.11-.34.17-.59.17-.19,0-.37-.04-.53-.12-.16-.08-.32-.18-.46-.32l-.28.3c.15.15.33.27.54.36.21.09.45.14.7.14.2,0,.37-.03.52-.08.15-.05.28-.12.39-.21.11-.09.19-.2.24-.32.05-.12.08-.26.08-.4h0ZM112.03,149.35v-3.62h-.45l-.89,2.17c-.02.05-.04.11-.07.18-.03.06-.05.13-.08.2-.03.07-.05.13-.07.19-.02.06-.04.11-.05.14-.01-.04-.03-.08-.05-.14-.02-.06-.04-.12-.07-.18-.03-.06-.05-.13-.08-.2-.03-.07-.05-.13-.07-.18l-.88-2.17h-.46v3.62h.4v-2.84s.02.08.04.13c.02.05.03.1.05.16.02.05.04.11.06.17.02.06.04.11.06.15l.98,2.33,1-2.33s.04-.1.06-.16c.02-.05.04-.11.06-.16.02-.05.04-.1.06-.16.02-.05.03-.09.04-.13v2.84h.4Z"/></svg>