<?xml version="1.0" encoding="UTF-8" standalone="no"?>
<!-- Created with Inkscape (http://www.inkscape.org/) -->

<svg
   xmlns:dc="http://purl.org/dc/elements/1.1/"
   xmlns:cc="http://creativecommons.org/ns#"
   xmlns:rdf="http://www.w3.org/1999/02/22-rdf-syntax-ns#"
   xmlns:svg="http://www.w3.org/2000/svg"
   xmlns="http://www.w3.org/2000/svg"
   xmlns:sodipodi="http://sodipodi.sourceforge.net/DTD/sodipodi-0.dtd"
   xmlns:inkscape="http://www.inkscape.org/namespaces/inkscape"
   width="228.42812"
   height="49.330639"
   viewBox="0 0 60.438273 13.052065"
   version="1.1"
   id="svg13906"
   inkscape:version="0.92.0 r15299"
   sodipodi:docname="kawneer.svg">
  <defs
     id="defs13900" />
  <sodipodi:namedview
     id="base"
     pagecolor="#ffffff"
     bordercolor="#666666"
     borderopacity="1.0"
     inkscape:pageopacity="0.0"
     inkscape:pageshadow="2"
     inkscape:zoom="3.9615223"
     inkscape:cx="113.21405"
     inkscape:cy="23.665321"
     inkscape:document-units="mm"
     inkscape:current-layer="layer1"
     showgrid="false"
     fit-margin-top="0"
     fit-margin-left="0"
     fit-margin-right="0"
     fit-margin-bottom="0"
     units="px"
     inkscape:window-width="1280"
     inkscape:window-height="744"
     inkscape:window-x="-4"
     inkscape:window-y="-4"
     inkscape:window-maximized="1" />
  <metadata
     id="metadata13903">
    <rdf:RDF>
      <cc:Work
         rdf:about="">
        <dc:format>image/svg+xml</dc:format>
        <dc:type
           rdf:resource="http://purl.org/dc/dcmitype/StillImage" />
        <dc:title></dc:title>
      </cc:Work>
    </rdf:RDF>
  </metadata>
  <g
     inkscape:label="Layer 1"
     inkscape:groupmode="layer"
     id="layer1"
     transform="translate(-73.610926,-163.96534)">
    <g
       id="g13972"
       transform="translate(0.26458416,-0.264579)">
      <path
         inkscape:connector-curvature="0"
         style="clip-rule:nonzero;fill:#f05c21;fill-opacity:1;fill-rule:nonzero;stroke:none;stroke-width:0.35277778"
         d="m 84.475726,175.57055 c 0,0 -6.7731,-5.13457 -6.7538,-5.14973 0.018,-0.0165 7.163,-5.92143 7.163,-5.92143 0.013,-0.011 -3.6697,0 -3.6697,0 0,0 -4.903,5.95588 -4.9044,5.95312 0,0.003 3.062,5.11666 3.062,5.11666"
         id="path13488" />
      <path
         id="path13492"
         d="m 73.620926,166.62708 -0.01,5.73126 c 0,0 4.2898,-5.73264 4.2898,-5.73264"
         style="fill:#f05c21;fill-opacity:1;fill-rule:nonzero;stroke:none;stroke-width:0.35277778"
         inkscape:connector-curvature="0" />
      <path
         id="path13494"
         d="m 128.13473,170.29266 v -1.69223 h 2.7685 c 0.3982,0.008 0.6972,0.0386 0.8888,0.37896 0.1075,0.18328 0.1199,0.35002 0.1199,0.45889 0,0.20257 -0.056,0.37207 -0.1681,0.50574 -0.2522,0.32246 -0.678,0.34864 -1.13,0.34864 z m 3.4272,0.66422 c 0.1819,-0.0345 0.299,-0.0703 0.4134,-0.11576 0.7896,-0.32659 0.9067,-1.03766 0.9067,-1.43178 0,-0.77446 -0.4396,-1.35186 -1.1768,-1.54616 -0.2246,-0.0606 -0.3928,-0.0772 -0.853,-0.0841 h -3.6587 v 5.41982 h 0.9481 v -2.09186 h 2.3743 c 0.058,0.0689 1.768,2.09186 1.768,2.09186 h 1.2361 c 0,0 -1.7501,-2.00366 -1.9581,-2.24206 m -9.5595,-0.15986 h 3.9701 v -0.82268 h -3.9701 v -1.35186 h 4.0735 v -0.84336 h -5.0133 v 5.41982 h 5.2062 v -0.84335 h -4.2664 z m -6.2714,0 h 3.9687 v -0.82268 h -3.9687 v -1.35186 h 4.0734 v -0.84336 h -5.0146 v 5.41982 h 5.2076 v -0.84335 h -4.2664 z m -3.08,-3.0179 v 3.70141 l 0.013,0.3638 c 0,0.008 0,0.0537 0.01,0.10336 -0.033,-0.04 -0.083,-0.0965 -0.083,-0.0965 l -0.2756,-0.3073 -3.5567,-3.7648 h -0.9054 v 5.41982 h 0.9109 v -4.01835 c 0,-0.001 -0.01,-0.0744 -0.012,-0.15848 0,0.004 0.012,0.0152 0.012,0.0152 0,0.003 0.1943,0.21773 0.1943,0.21773 0,0.001 3.7359,3.94395 3.7359,3.94395 h 0.8681 v -5.41983 z m -17.885504,3.33347 c 0.1295,-0.25355 1.028,-2.02709 1.028,-2.02709 0,-0.001 0.051,-0.12402 0.099,-0.24529 0.025,0.0593 0.052,0.12127 0.098,0.2136 0,0.001 0.7868,1.57372 1.0293,2.05878 z m 1.5517,-3.33347 h -0.8517 l -2.7946,5.38951 c -0.2674,-0.31557 -2.6652,-3.15984 -2.7878,-3.30592 0.1598,-0.11988 2.796,-2.08359 2.796,-2.08359 h -1.4221 c 0,0 -3.3362,2.46531 -3.6311,2.68166 v -2.68166 h -0.9316 v 5.41982 h 0.9178 v -1.6688 c 0.074,-0.0537 1.3684,-1.00459 1.502,-1.10381 0.1158,0.13643 2.3289,2.77261 2.3289,2.77261 h 2.2752 c 0,0 0.5843,-1.18373 0.6352,-1.28571 h 3.0841 c 0.051,0.10198 0.6366,1.28571 0.6366,1.28571 h 1.0846 l -2.7795,-5.41982"
         style="fill:#6b6e6e;fill-opacity:1;fill-rule:nonzero;stroke:none;stroke-width:0.35277778"
         inkscape:connector-curvature="0" />
      <path
         id="path13496"
         d="m 106.09573,167.77912 -1.2196,3.88607 c -0.04,0.11989 -0.065,0.20395 -0.087,0.2825 -0.012,-0.0482 -0.036,-0.13367 -0.036,-0.13367 l -0.012,-0.0331 c 0,-0.003 -1.4635,-4.00182 -1.4635,-4.00182 h -0.7979 l -1.4001,3.7772 c -0.061,0.17226 -0.096,0.27974 -0.1267,0.38172 -0.014,-0.0496 -0.03,-0.10749 -0.052,-0.18328 0,-0.001 -1.247105,-3.97564 -1.247105,-3.97564 h -1.001899 l 1.761194,5.4212 h 0.98661 l 1.3547,-3.72621 c 0.058,-0.15985 0.094,-0.26596 0.1226,-0.37069 0.037,0.13642 0.084,0.26871 0.1626,0.48093 l 1.3009,3.61597 h 0.9632 l 1.7887,-5.4212 h -0.1392"
         style="fill:#6b6e6e;fill-opacity:1;fill-rule:nonzero;stroke:none;stroke-width:0.35277778"
         inkscape:connector-curvature="0" />
      <path
         style="fill:#6b6e6e;fill-opacity:1;stroke:none;stroke-width:0.35277778"
         d="m 108.90073,176.97885 h 0.226 l 0.1433,-0.35278 h 0.678 l 0.1433,0.35278 h 0.226 l -0.6118,-1.42765 h -0.1709 z m 0.4355,-0.52365 0.2701,-0.65595 h 0.01 l 0.2701,0.65595 z m 0,0"
         id="path13778"
         inkscape:connector-curvature="0" />
      <path
         style="fill:#6b6e6e;fill-opacity:1;stroke:none;stroke-width:0.35277778"
         d="m 110.55203,176.97885 h 0.1929 v -1.17409 h 0.01 l 0.7938,1.17409 h 0.248 v -1.42765 h -0.1929 v 1.17409 h -0.01 l -0.7882,-1.17409 h -0.2536 z m 0,0"
         id="path13782"
         inkscape:connector-curvature="0" />
      <path
         style="fill:#6b6e6e;fill-opacity:1;stroke:none;stroke-width:0.35277778"
         d="m 112.63573,176.97885 h 0.226 l 0.1433,-0.35278 h 0.678 l 0.14329,0.35278 h 0.22601 l -0.6118,-1.42765 h -0.1709 z m 0.4355,-0.52365 0.2701,-0.65595 h 0.01 l 0.2701,0.65595 z m 0,0"
         id="path13790"
         inkscape:connector-curvature="0" />
      <path
         style="fill:#6b6e6e;fill-opacity:1;stroke:none;stroke-width:0.35277778"
         d="m 114.28703,176.97885 h 0.1929 v -0.62839 h 0.2205 l 0.35829,0.62839 h 0.24251 l -0.4024,-0.65043 c 0.055,-0.006 0.1048,-0.022 0.1489,-0.0441 0.039,-0.0221 0.077,-0.0551 0.1102,-0.0882 0.028,-0.0331 0.05,-0.0716 0.066,-0.11575 0.016,-0.0441 0.027,-0.0827 0.027,-0.13229 0,-0.0441 -0.011,-0.0882 -0.022,-0.13781 -0.017,-0.0441 -0.039,-0.0882 -0.072,-0.12678 -0.033,-0.0386 -0.083,-0.0716 -0.1433,-0.0992 -0.055,-0.0221 -0.1323,-0.0331 -0.226,-0.0331 h -0.5016 z m 0.1929,-1.25677 h 0.2591 c 0.039,0 0.072,0 0.1102,0.006 0.039,0.006 0.066,0.0165 0.099,0.0331 0.027,0.0165 0.05,0.0386 0.066,0.0717 0.022,0.0276 0.028,0.0717 0.028,0.11576 0,0.0496 -0.01,0.0882 -0.028,0.12126 -0.016,0.0276 -0.039,0.0496 -0.066,0.0661 -0.033,0.0165 -0.061,0.0276 -0.099,0.0331 -0.039,0.006 -0.072,0.011 -0.1102,0.011 h -0.2591 z m 0,0"
         id="path13794"
         inkscape:connector-curvature="0" />
      <path
         style="fill:#6b6e6e;fill-opacity:1;stroke:none;stroke-width:0.35277778"
         d="m 116.72663,175.73862 c -0.061,-0.0772 -0.1323,-0.1323 -0.2205,-0.17088 -0.094,-0.0331 -0.1874,-0.0551 -0.2812,-0.0551 -0.1102,0 -0.2094,0.0221 -0.30311,0.0606 -0.088,0.0331 -0.16539,0.0882 -0.2315,0.15434 -0.066,0.0717 -0.1158,0.14883 -0.1544,0.24254 -0.039,0.0937 -0.055,0.19843 -0.055,0.30868 0,0.0882 0.016,0.17639 0.05,0.26458 0.039,0.0882 0.083,0.16536 0.1488,0.23702 0.061,0.0717 0.1434,0.12678 0.2316,0.17088 0.094,0.0441 0.1929,0.0661 0.3031,0.0661 0.083,0 0.1599,-0.011 0.2205,-0.0331 0.061,-0.0221 0.1158,-0.0441 0.1599,-0.0717 0.044,-0.0276 0.083,-0.0551 0.1047,-0.0827 0.028,-0.0276 0.05,-0.0496 0.061,-0.0661 l -0.16529,-0.12127 c -0.044,0.0606 -0.094,0.10473 -0.15991,0.1378 -0.061,0.0386 -0.1323,0.0551 -0.215,0.0551 -0.083,0 -0.1543,-0.0165 -0.22049,-0.0441 -0.072,-0.0331 -0.1212,-0.0717 -0.17081,-0.12127 -0.044,-0.0551 -0.077,-0.11024 -0.10479,-0.1819 -0.022,-0.0661 -0.033,-0.13781 -0.033,-0.20946 0,-0.0827 0.011,-0.15986 0.033,-0.23151 0.028,-0.0717 0.066,-0.1323 0.11029,-0.1819 0.05,-0.0551 0.10471,-0.0937 0.1709,-0.12678 0.061,-0.0276 0.1378,-0.0441 0.2149,-0.0441 0.066,0 0.1323,0.0165 0.193,0.0441 0.061,0.0276 0.11021,0.0661 0.1543,0.12126 z m 0,0"
         id="path13798"
         inkscape:connector-curvature="0" />
      <path
         style="fill:#6b6e6e;fill-opacity:1;stroke:none;stroke-width:0.35277778"
         d="m 117.99753,176.9568 c 0.088,-0.0386 0.1709,-0.0882 0.237,-0.15985 0.061,-0.0662 0.1103,-0.14332 0.1489,-0.23702 0.039,-0.0882 0.055,-0.18742 0.055,-0.29766 0,-0.10473 -0.016,-0.20395 -0.055,-0.29214 -0.039,-0.0937 -0.088,-0.17088 -0.1489,-0.24254 -0.066,-0.0661 -0.14881,-0.12127 -0.237,-0.15434 -0.094,-0.0386 -0.1929,-0.0606 -0.3032,-0.0606 -0.1102,0 -0.20941,0.0221 -0.2976,0.0606 -0.094,0.0331 -0.1709,0.0882 -0.237,0.15434 -0.066,0.0717 -0.1158,0.14883 -0.1544,0.24254 -0.039,0.0882 -0.055,0.18741 -0.055,0.29214 0,0.11024 0.017,0.20946 0.055,0.29766 0.039,0.0937 0.088,0.17087 0.1544,0.23702 0.066,0.0717 0.1433,0.12127 0.237,0.15985 0.088,0.0386 0.1874,0.0606 0.2976,0.0606 0.1103,0 0.2095,-0.022 0.3032,-0.0606 z m -0.5236,-0.17088 c -0.066,-0.0276 -0.1213,-0.0717 -0.1709,-0.12126 -0.044,-0.0496 -0.083,-0.11025 -0.1103,-0.1819 -0.022,-0.0661 -0.033,-0.13781 -0.033,-0.22049 0,-0.0772 0.011,-0.14883 0.033,-0.22049 0.028,-0.0661 0.066,-0.12678 0.1103,-0.17638 0.05,-0.0551 0.10469,-0.0937 0.1709,-0.12678 0.066,-0.0276 0.1378,-0.0441 0.2204,-0.0441 0.083,0 0.1544,0.0165 0.226,0.0441 0.066,0.0331 0.1213,0.0716 0.16539,0.12678 0.05,0.0496 0.083,0.11024 0.11031,0.17638 0.027,0.0717 0.038,0.14332 0.038,0.22049 0,0.0827 -0.011,0.15434 -0.038,0.22049 -0.028,0.0716 -0.061,0.13229 -0.11031,0.1819 -0.044,0.0496 -0.099,0.0937 -0.16539,0.12126 -0.072,0.0331 -0.14331,0.0496 -0.226,0.0496 -0.083,0 -0.1543,-0.0165 -0.2204,-0.0496 z m 0,0"
         id="path13802"
         inkscape:connector-curvature="0" />
      <path
         style="fill:#6b6e6e;fill-opacity:1;stroke:none;stroke-width:0.35277778"
         d="m 118.76583,176.97885 h 0.1929 v -1.17409 h 0.01 l 0.7938,1.17409 h 0.248 v -1.42765 h -0.1929 v 1.17409 h -0.01 l -0.7882,-1.17409 h -0.2536 z m 0,0"
         id="path13806"
         inkscape:connector-curvature="0" />
      <path
         style="fill:#6b6e6e;fill-opacity:1;stroke:none;stroke-width:0.35277778"
         d="m 120.42073,176.97885 h 0.1929 v -1.42765 h -0.1929 z m 0,0"
         id="path13810"
         inkscape:connector-curvature="0" />
      <path
         style="fill:#6b6e6e;fill-opacity:1;stroke:none;stroke-width:0.35277778"
         d="m 122.18913,175.73862 c -0.061,-0.0772 -0.1323,-0.1323 -0.2205,-0.17088 -0.094,-0.0331 -0.1874,-0.0551 -0.2812,-0.0551 -0.11021,0 -0.2094,0.0221 -0.30311,0.0606 -0.088,0.0331 -0.16539,0.0882 -0.23149,0.15434 -0.066,0.0717 -0.11581,0.14883 -0.15441,0.24254 -0.039,0.0937 -0.055,0.19843 -0.055,0.30868 0,0.0882 0.016,0.17639 0.05,0.26458 0.039,0.0882 0.083,0.16536 0.1488,0.23702 0.061,0.0717 0.1434,0.12678 0.2316,0.17088 0.094,0.0441 0.1929,0.0661 0.3031,0.0661 0.083,0 0.1599,-0.011 0.2205,-0.0331 0.061,-0.0221 0.1158,-0.0441 0.15991,-0.0717 0.044,-0.0276 0.083,-0.0551 0.10469,-0.0827 0.028,-0.0276 0.05,-0.0496 0.061,-0.0661 l -0.1653,-0.12127 c -0.044,0.0606 -0.094,0.10473 -0.1599,0.1378 -0.061,0.0386 -0.1323,0.0551 -0.215,0.0551 -0.083,0 -0.1543,-0.0165 -0.2205,-0.0441 -0.072,-0.0331 -0.1212,-0.0717 -0.1708,-0.12127 -0.044,-0.0551 -0.077,-0.11024 -0.1048,-0.1819 -0.022,-0.0661 -0.033,-0.13781 -0.033,-0.20946 0,-0.0827 0.011,-0.15986 0.033,-0.23151 0.028,-0.0717 0.066,-0.1323 0.1103,-0.1819 0.05,-0.0551 0.1047,-0.0937 0.1709,-0.12678 0.061,-0.0276 0.1378,-0.0441 0.2149,-0.0441 0.066,0 0.1323,0.0165 0.193,0.0441 0.061,0.0276 0.11021,0.0661 0.1543,0.12126 z m 0,0"
         id="path13814"
         inkscape:connector-curvature="0" />
      <path
         style="fill:#6b6e6e;fill-opacity:1;stroke:none;stroke-width:0.35277778"
         d="m 124.26923,175.73862 c -0.061,-0.0772 -0.1323,-0.1323 -0.2205,-0.17088 -0.094,-0.0331 -0.1874,-0.0551 -0.28121,-0.0551 -0.11019,0 -0.20939,0.0221 -0.30309,0.0606 -0.088,0.0331 -0.1654,0.0882 -0.2315,0.15434 -0.066,0.0717 -0.1158,0.14883 -0.1544,0.24254 -0.039,0.0937 -0.055,0.19843 -0.055,0.30868 0,0.0882 0.016,0.17639 0.05,0.26458 0.039,0.0882 0.083,0.16536 0.1488,0.23702 0.061,0.0717 0.1434,0.12678 0.2316,0.17088 0.094,0.0441 0.1929,0.0661 0.3031,0.0661 0.083,0 0.1599,-0.011 0.2205,-0.0331 0.061,-0.0221 0.1158,-0.0441 0.1599,-0.0717 0.044,-0.0276 0.083,-0.0551 0.1047,-0.0827 0.028,-0.0276 0.05,-0.0496 0.061,-0.0661 l -0.1653,-0.12127 c -0.044,0.0606 -0.094,0.10473 -0.1599,0.1378 -0.061,0.0386 -0.1323,0.0551 -0.215,0.0551 -0.083,0 -0.1543,-0.0165 -0.2205,-0.0441 -0.072,-0.0331 -0.1212,-0.0717 -0.1708,-0.12127 -0.044,-0.0551 -0.077,-0.11024 -0.10481,-0.1819 -0.022,-0.0661 -0.033,-0.13781 -0.033,-0.20946 0,-0.0827 0.011,-0.15986 0.033,-0.23151 0.028,-0.0717 0.066,-0.1323 0.11031,-0.1819 0.05,-0.0551 0.1047,-0.0937 0.1709,-0.12678 0.061,-0.0276 0.1378,-0.0441 0.2149,-0.0441 0.066,0 0.1323,0.0165 0.193,0.0441 0.061,0.0276 0.1102,0.0661 0.1543,0.12126 z m 0,0"
         id="path13822"
         inkscape:connector-curvature="0" />
      <path
         style="fill:#6b6e6e;fill-opacity:1;stroke:none;stroke-width:0.35277778"
         d="m 125.54012,176.9568 c 0.088,-0.0386 0.17091,-0.0882 0.23701,-0.15985 0.061,-0.0662 0.11029,-0.14332 0.14889,-0.23702 0.039,-0.0882 0.055,-0.18742 0.055,-0.29766 0,-0.10473 -0.016,-0.20395 -0.055,-0.29214 -0.039,-0.0937 -0.088,-0.17088 -0.14889,-0.24254 -0.066,-0.0661 -0.1488,-0.12127 -0.23701,-0.15434 -0.094,-0.0386 -0.19289,-0.0606 -0.30319,-0.0606 -0.1102,0 -0.2094,0.0221 -0.29761,0.0606 -0.094,0.0331 -0.17089,0.0882 -0.23699,0.15434 -0.066,0.0717 -0.1158,0.14883 -0.1544,0.24254 -0.039,0.0882 -0.055,0.18741 -0.055,0.29214 0,0.11024 0.017,0.20946 0.055,0.29766 0.039,0.0937 0.088,0.17087 0.1544,0.23702 0.066,0.0717 0.1433,0.12127 0.23699,0.15985 0.088,0.0386 0.18741,0.0606 0.29761,0.0606 0.1103,0 0.2095,-0.022 0.30319,-0.0606 z m -0.5236,-0.17088 c -0.066,-0.0276 -0.12129,-0.0717 -0.17089,-0.12126 -0.044,-0.0496 -0.083,-0.11025 -0.1103,-0.1819 -0.022,-0.0661 -0.033,-0.13781 -0.033,-0.22049 0,-0.0772 0.011,-0.14883 0.033,-0.22049 0.028,-0.0661 0.066,-0.12678 0.1103,-0.17638 0.05,-0.0551 0.1047,-0.0937 0.17089,-0.12678 0.066,-0.0276 0.13781,-0.0441 0.22041,-0.0441 0.083,0 0.1544,0.0165 0.226,0.0441 0.066,0.0331 0.1213,0.0716 0.1654,0.12678 0.05,0.0496 0.083,0.11024 0.1103,0.17638 0.027,0.0717 0.038,0.14332 0.038,0.22049 0,0.0827 -0.011,0.15434 -0.038,0.22049 -0.028,0.0716 -0.061,0.13229 -0.1103,0.1819 -0.044,0.0496 -0.099,0.0937 -0.1654,0.12126 -0.072,0.0331 -0.1433,0.0496 -0.226,0.0496 -0.083,0 -0.1543,-0.0165 -0.22041,-0.0496 z m 0,0"
         id="path13826"
         inkscape:connector-curvature="0" />
      <path
         style="fill:#6b6e6e;fill-opacity:1;stroke:none;stroke-width:0.35277778"
         d="m 126.29753,176.97885 h 0.1929 v -1.17409 h 0.01 l 0.4796,1.17409 h 0.1323 l 0.47949,-1.17409 h 0.01 v 1.17409 h 0.19301 v -1.42765 h -0.28671 l -0.452,1.08038 h -0.011 l -0.45199,-1.08038 h -0.28661 z m 0,0"
         id="path13830"
         inkscape:connector-curvature="0" />
      <path
         style="fill:#6b6e6e;fill-opacity:1;stroke:none;stroke-width:0.35277778"
         d="m 128.18503,176.97885 h 0.1929 v -0.62839 h 0.3087 c 0.094,0 0.1709,-0.011 0.226,-0.0386 0.061,-0.0276 0.1102,-0.0551 0.1433,-0.0937 0.033,-0.0386 0.055,-0.0827 0.072,-0.13229 0.011,-0.0441 0.022,-0.0937 0.022,-0.1378 0,-0.0441 -0.011,-0.0882 -0.022,-0.13781 -0.017,-0.0441 -0.039,-0.0882 -0.072,-0.12678 -0.033,-0.0386 -0.083,-0.0716 -0.1433,-0.0992 -0.055,-0.0221 -0.1323,-0.0331 -0.226,-0.0331 h -0.5016 z m 0.1929,-1.25677 h 0.2591 c 0.039,0 0.072,0 0.1102,0.006 0.039,0.006 0.066,0.0165 0.099,0.0331 0.027,0.0165 0.05,0.0386 0.066,0.0717 0.022,0.0276 0.028,0.0717 0.028,0.11576 0,0.0496 -0.01,0.0882 -0.028,0.12126 -0.016,0.0276 -0.039,0.0496 -0.066,0.0661 -0.033,0.0165 -0.061,0.0276 -0.099,0.0331 -0.038,0.006 -0.072,0.011 -0.1102,0.011 h -0.2591 z m 0,0"
         id="path13834"
         inkscape:connector-curvature="0" />
      <path
         style="fill:#6b6e6e;fill-opacity:1;stroke:none;stroke-width:0.35277778"
         d="m 129.09973,176.97885 h 0.22599 l 0.14331,-0.35278 h 0.678 l 0.1433,0.35278 h 0.226 l -0.61181,-1.42765 h -0.17089 z m 0.4355,-0.52365 0.2701,-0.65595 h 0.01 l 0.2701,0.65595 z m 0,0"
         id="path13856"
         inkscape:connector-curvature="0" />
      <path
         style="fill:#6b6e6e;fill-opacity:1;stroke:none;stroke-width:0.35277778"
         d="m 130.75103,176.97885 h 0.1929 v -1.17409 h 0.01 l 0.7938,1.17409 h 0.248 v -1.42765 h -0.1929 v 1.17409 h -0.01 l -0.7882,-1.17409 h -0.2536 z m 0,0"
         id="path13860"
         inkscape:connector-curvature="0" />
      <path
         style="fill:#6b6e6e;fill-opacity:1;stroke:none;stroke-width:0.35277778"
         d="m 132.74213,176.97885 h 0.1985 V 176.367 l 0.5402,-0.8158 h -0.2371 l -0.4023,0.62839 -0.3914,-0.62839 h -0.248 l 0.5401,0.8158 z m 0,0"
         id="path13864"
         inkscape:connector-curvature="0" />
    </g>
  </g>
</svg>
