<svg width="160" height="63" viewBox="0 0 160 63" fill="none" xmlns="http://www.w3.org/2000/svg">
<path d="M11.1081 26.1554C12.9824 27.1463 15.0732 27.6618 17.1955 27.6563C18.9426 27.6563 20.9656 27.3085 20.9656 25.7345C20.9656 22.0555 10.5196 24.1604 10.5196 16.6743C10.5196 11.7141 15.1173 10.4512 19.2736 10.4512C21.4193 10.4392 23.5538 10.7603 25.6001 11.403L25.0851 15.8141C23.6323 15.2101 21.7932 14.606 19.715 14.606C18.3173 14.606 16.1656 14.6976 16.1656 16.4913C16.1656 19.731 26.6667 18.0654 26.6667 25.2586C26.6667 30.6031 21.8116 31.8111 17.2139 31.8111C14.4369 31.8111 11.8621 31.262 10.5012 30.8045L11.1081 26.1554ZM45.4805 10.8356H28.1012V15.0087H34.0415V31.4268H39.5587V15.0087H45.4989V10.8356H45.4805ZM143.172 10.8356L139.163 19.0904L135.099 10.8356H128.754L136.405 23.6662V31.4268H141.922V23.6662L149.517 10.8356H143.172ZM69.2598 10.8356V31.4268H74.5748V20.3167L83.5863 31.4085H88.092V28.3152L73.8024 10.8173H69.2598V10.8356ZM88.0736 21.2501V10.8173H79.6323L88.0736 21.2501ZM116.8 23.0988H125.499V18.9988H116.8V14.8806H126.363V10.8356H111.154V31.4268H126.694V27.3268H116.818V23.0988H116.8ZM98.7771 10.8356H93.1127V31.4268H107.807V27.1804H98.7587V10.8356H98.7771ZM59.0713 27.3085H51.3104L49.9127 31.4268H44.5242L52.1196 10.8356H58.5196L66.2254 31.4268H60.4139L59.0713 27.3085ZM57.8391 23.4099L55.2644 15.1368L52.5794 23.4099H57.8391Z" fill="black"/>
<path d="M146.078 29.7246C146.078 29.3771 146.182 29.0373 146.376 28.7484C146.57 28.4594 146.845 28.2342 147.168 28.1012C147.491 27.9682 147.846 27.9334 148.188 28.0012C148.531 28.069 148.845 28.2364 149.092 28.4821C149.339 28.7279 149.507 29.0409 149.575 29.3818C149.643 29.7226 149.608 30.0759 149.475 30.397C149.341 30.7181 149.115 30.9925 148.824 31.1856C148.534 31.3787 148.193 31.4817 147.844 31.4817C147.375 31.4817 146.926 31.2966 146.595 30.9671C146.264 30.6375 146.078 30.1906 146.078 29.7246ZM149.186 29.7246C149.169 29.4639 149.075 29.2139 148.917 29.0053C148.759 28.7968 148.543 28.6388 148.296 28.5508C148.049 28.4629 147.781 28.4488 147.526 28.5103C147.271 28.5718 147.039 28.7062 146.86 28.8969C146.681 29.0877 146.561 29.3265 146.516 29.584C146.472 29.8414 146.503 30.1063 146.608 30.3459C146.713 30.5856 146.885 30.7896 147.105 30.9329C147.324 31.0762 147.581 31.1524 147.844 31.1522C148.027 31.1485 148.207 31.1084 148.374 31.0342C148.542 30.96 148.692 30.8532 148.817 30.7201C148.942 30.5871 149.04 30.4304 149.103 30.2595C149.166 30.0885 149.195 29.9066 149.186 29.7246ZM147.163 28.7179H147.917C148.395 28.7179 148.653 28.8826 148.653 29.3036C148.653 29.6514 148.451 29.8161 148.119 29.8344L148.653 30.713H148.267L147.752 29.8527H147.531V30.713H147.163V28.7179ZM147.531 29.5599H147.862C148.083 29.5599 148.267 29.5232 148.267 29.267C148.267 29.0108 148.046 28.9925 147.862 28.9925H147.531V29.5599Z" fill="black"/>
<path d="M15.7057 40.0294L13.6091 45.2275H17.8022L15.7057 40.0294ZM14.97 38.62H16.5516L21.0022 49.1078H19.3654L18.2988 46.4721H13.1309L12.0643 49.1078H10.4827L14.97 38.62Z" fill="#010101"/>
<path d="M27.2919 42.7382C26.8021 42.5334 26.2782 42.4216 25.7471 42.4088C24.1655 42.4088 23.2643 43.8181 23.2643 45.2824C23.2643 46.6551 23.9999 48.156 25.839 48.156C26.3788 48.1524 26.9071 48.0004 27.3655 47.7167L27.4758 48.9797C26.9105 49.2095 26.3021 49.3156 25.6919 49.2908C23.3747 49.2908 21.7747 47.4788 21.7747 45.2824C21.7747 42.9579 23.3379 41.274 25.6919 41.274C26.2802 41.2786 26.8639 41.3775 27.4206 41.5668L27.2919 42.7382Z" fill="#010101"/>
<path d="M33.9862 42.7382C33.4965 42.5334 32.9725 42.4216 32.4414 42.4088C30.8598 42.4088 29.9586 43.8181 29.9586 45.2824C29.9586 46.6551 30.6943 48.156 32.5334 48.156C33.0731 48.1524 33.6014 48.0004 34.0598 47.7167L34.1701 48.9797C33.6048 49.2095 32.9964 49.3156 32.3862 49.2908C30.069 49.2908 28.469 47.4788 28.469 45.2824C28.469 42.9579 30.0322 41.274 32.3862 41.274C32.9745 41.2786 33.5583 41.3775 34.115 41.5668L33.9862 42.7382Z" fill="#010101"/>
<path d="M40.7723 44.532C40.7723 43.3606 40.0734 42.3905 38.8596 42.3905C37.4803 42.3905 36.8918 43.5253 36.7999 44.532H40.7723ZM41.6918 48.7966C40.9277 49.133 40.0997 49.3016 39.2642 49.2908C36.524 49.2908 35.2734 47.6435 35.2734 45.136C35.2734 42.8664 36.7079 41.2557 38.878 41.2557C41.4527 41.2557 42.2803 43.1226 42.2803 45.5753H36.7815C36.7751 45.9104 36.8361 46.2435 36.9609 46.5548C37.0858 46.8662 37.2719 47.1496 37.5083 47.3883C37.7448 47.6271 38.0268 47.8163 38.3378 47.945C38.6489 48.0737 38.9826 48.1392 39.3194 48.1377C40.2573 48.1377 41.3424 47.6618 41.6918 47.369V48.7966Z" fill="#010101"/>
<path d="M43.623 47.6069C44.1559 47.9345 44.7631 48.1233 45.3886 48.156C46.0322 48.156 46.8414 47.8815 46.8414 47.0578C46.8414 45.6668 43.5127 45.7766 43.5127 43.6351C43.5127 42.0427 44.7081 41.274 46.2345 41.274C46.8346 41.2819 47.4299 41.3807 48.0001 41.5668L47.8713 42.7932C47.5587 42.5918 46.7127 42.4088 46.3817 42.4088C45.6644 42.4088 45.0207 42.7016 45.0207 43.3423C45.0207 44.898 48.3495 44.4588 48.3495 46.8931C48.3495 48.5221 47.0437 49.2725 45.6644 49.2725C44.9472 49.2725 44.1932 49.1993 43.5495 48.8516L43.623 47.6069Z" fill="#010101"/>
<path d="M49.4897 47.6069C50.0226 47.9345 50.6298 48.1233 51.2553 48.156C51.8989 48.156 52.7081 47.8815 52.7081 47.0578C52.7081 45.6668 49.3794 45.7766 49.3794 43.6351C49.3794 42.0427 50.5748 41.274 52.1012 41.274C52.7012 41.2819 53.2966 41.3807 53.8667 41.5668L53.738 42.7932C53.4254 42.5918 52.5794 42.4088 52.2484 42.4088C51.5311 42.4088 50.8874 42.7016 50.8874 43.3423C50.8874 44.898 54.2162 44.4588 54.2162 46.8931C54.2162 48.5221 52.9104 49.2725 51.5311 49.2725C50.8139 49.2725 50.0599 49.1993 49.4162 48.8516L49.4897 47.6069Z" fill="#010101"/>
<path d="M62.3632 39.9378H59.0896V38.62H67.1448V39.9378H63.8712V49.1078H62.3632V39.9378Z" fill="#010101"/>
<path d="M72.3863 44.532C72.3863 43.3606 71.6875 42.3905 70.4737 42.3905C69.0944 42.3905 68.5058 43.5253 68.4139 44.532H72.3863ZM73.3059 48.7966C72.5417 49.133 71.7137 49.3016 70.8783 49.2908C68.138 49.2908 66.8875 47.6435 66.8875 45.136C66.8875 42.8664 68.3219 41.2557 70.4921 41.2557C73.0668 41.2557 73.8944 43.1226 73.8944 45.5753H68.3955C68.3891 45.9104 68.4501 46.2435 68.575 46.5548C68.6998 46.8662 68.8859 47.1496 69.1223 47.3883C69.3588 47.6271 69.6408 47.8163 69.9519 47.945C70.2629 48.0737 70.5966 48.1392 70.9334 48.1377C71.8714 48.1377 72.9564 47.6618 73.3059 47.369V48.7966Z" fill="#010101"/>
<path d="M80.6806 42.7382C80.1908 42.5334 79.6668 42.4216 79.1357 42.4088C77.5541 42.4088 76.653 43.8181 76.653 45.2824C76.653 46.6551 77.3886 48.156 79.2277 48.156C79.7675 48.1524 80.2957 48.0004 80.7541 47.7167L80.8645 48.9797C80.2991 49.2095 79.6907 49.3156 79.0806 49.2908C76.7633 49.2908 75.1633 47.4788 75.1633 45.2824C75.1633 42.9579 76.7265 41.274 79.0806 41.274C79.6689 41.2786 80.2526 41.3775 80.8093 41.5668L80.6806 42.7382Z" fill="#010101"/>
<path d="M82.4829 37.8513H83.899V42.5552H83.9358C84.4507 41.7499 85.3335 41.274 86.4185 41.274C88.4047 41.274 89.3059 42.5003 89.3059 44.5686V49.1261H87.8898V45.1543C87.8898 43.3606 87.5036 42.5003 86.253 42.4271C84.6346 42.4271 83.9174 43.7266 83.9174 45.5753V49.1261H82.5013V37.8513H82.4829Z" fill="#010101"/>
<path d="M91.7148 41.4387H93.0942V42.6467H93.1309C93.5539 41.7682 94.5838 41.2557 95.6505 41.2557C97.6367 41.2557 98.5378 42.482 98.5378 44.5503V49.1078H97.1034V45.136C97.1034 43.3423 96.7171 42.482 95.4666 42.4088C93.8482 42.4088 93.1309 43.7083 93.1309 45.5569V49.1078H91.7148V41.4387Z" fill="#010101"/>
<path d="M104.331 48.1377C105.986 48.1377 106.722 46.6369 106.722 45.2641C106.722 43.7998 105.839 42.3905 104.331 42.3905C102.823 42.3905 101.922 43.7998 101.922 45.2641C101.922 46.6369 102.657 48.1377 104.331 48.1377ZM104.331 41.274C106.667 41.274 108.248 42.9579 108.248 45.2824C108.248 47.4788 106.648 49.2908 104.331 49.2908C102.014 49.2908 100.414 47.4788 100.414 45.2824C100.414 42.9579 101.977 41.274 104.331 41.274Z" fill="#010101"/>
<path d="M111.742 37.8513H110.326V49.1078H111.742V37.8513Z" fill="#010101"/>
<path d="M117.756 48.1377C119.412 48.1377 120.147 46.6369 120.147 45.2641C120.147 43.7998 119.264 42.3905 117.756 42.3905C116.248 42.3905 115.347 43.7998 115.347 45.2641C115.347 46.6369 116.083 48.1377 117.756 48.1377ZM117.756 41.274C120.092 41.274 121.674 42.9579 121.674 45.2824C121.674 47.4788 120.074 49.2908 117.756 49.2908C115.439 49.2908 113.839 47.4788 113.839 45.2824C113.839 42.9579 115.402 41.274 117.756 41.274Z" fill="#010101"/>
<path d="M128.956 45.3739C128.956 43.7815 128.221 42.4088 126.713 42.4088C125.278 42.4088 124.561 43.9646 124.561 45.2641C124.561 46.7101 125.37 47.973 126.713 47.973C128.055 47.973 128.956 46.8016 128.956 45.3739ZM130.372 48.7783C130.372 51.1029 129.158 52.439 126.4 52.439C125.591 52.439 124.873 52.3292 123.641 51.9082L123.788 50.6087C124.873 51.1029 125.517 51.3042 126.565 51.3042C128.055 51.3042 128.956 50.2975 128.956 48.6685V47.9181H128.919C128.609 48.2976 128.216 48.602 127.77 48.8081C127.324 49.0142 126.836 49.1167 126.345 49.1078C124.138 49.1078 123.053 47.3141 123.053 45.3373C123.053 43.3606 124.175 41.274 126.492 41.274C127.853 41.274 128.607 41.7682 129.03 42.5918H129.067V41.457H130.372V48.7783Z" fill="#010101"/>
<path d="M132.965 41.4387H134.382V49.0895H132.965V41.4387ZM134.474 39.7365H132.874V38.1441H134.474V39.7365Z" fill="#010101"/>
<path d="M141.959 44.532C141.959 43.3606 141.26 42.3905 140.046 42.3905C138.667 42.3905 138.078 43.5253 137.986 44.532H141.959ZM142.878 48.7966C142.114 49.133 141.286 49.3016 140.451 49.2908C137.71 49.2908 136.46 47.6435 136.46 45.136C136.46 42.8664 137.894 41.2557 140.064 41.2557C142.639 41.2557 143.467 43.1226 143.467 45.5753H137.968C137.961 45.9104 138.022 46.2435 138.147 46.5548C138.272 46.8662 138.458 47.1496 138.695 47.3883C138.931 47.6271 139.213 47.8163 139.524 47.945C139.835 48.0737 140.169 48.1392 140.506 48.1377C141.444 48.1377 142.529 47.6618 142.878 47.369V48.7966Z" fill="black"/>
<path d="M144.791 47.6069C145.324 47.9345 145.931 48.1233 146.556 48.156C147.2 48.156 148.009 47.8815 148.009 47.0578C148.009 45.6668 144.68 45.7766 144.68 43.6351C144.68 42.0427 145.876 41.274 147.402 41.274C148.002 41.2819 148.598 41.3807 149.168 41.5668L149.039 42.7932C148.726 42.5918 147.88 42.4088 147.549 42.4088C146.832 42.4088 146.188 42.7016 146.188 43.3423C146.188 44.898 149.517 44.4588 149.517 46.8931C149.517 48.5221 148.211 49.2725 146.832 49.2725C146.115 49.2725 145.361 49.1993 144.717 48.8516L144.791 47.6069Z" fill="black"/>
</svg>
