<?xml version="1.0" encoding="UTF-8"?> <svg xmlns="http://www.w3.org/2000/svg" xml:space="preserve" width="246" height="160" style="fill-rule:evenodd;clip-rule:evenodd;stroke-linejoin:round;stroke-miterlimit:2"><path d="M147.397 20.136v65.55h9.789v-57.19l-9.789-8.36Zm2.012 4.362 5.768 4.926v54.252h-5.768V24.498ZM134.311 10.068v75.618h9.79V18.429l-9.79-8.361Zm2.012 4.363 5.768 4.928v64.317h-5.768V14.431ZM121.226.004v85.682h9.791V8.365L121.226.004Zm2.013 4.365 5.768 4.924v74.383h-5.768V4.369ZM91.752 20.136v65.55h-9.791v-57.19l9.791-8.36ZM104.843 10.068v75.618h-9.794V18.429l9.794-8.361ZM117.927.004v85.682h-9.791V8.365l9.791-8.361Z" style="fill:#0073bc;fill-rule:nonzero" transform="translate(0 -.004)"></path><path d="m13.885 106.617 6.18 15.48 6.264-15.48h3.687l-10.025 22.09-9.793-22.09h3.687ZM46.571 106.617h3.371v22.338h-3.371zM73.098 116.873h1.07c3.194 0 4.79-1.221 4.79-3.659 0-2.287-1.553-3.429-4.659-3.429h-1.201v7.088Zm4.195 2.562 6.916 9.52h-4.125l-6.378-9.145h-.608v9.145h-3.371v-22.338h3.949c2.953 0 5.084.554 6.395 1.664 1.447 1.232 2.172 2.865 2.172 4.889 0 1.582-.455 2.945-1.362 4.078-.904 1.14-2.103 1.869-3.588 2.187ZM112.448 120.359l-3.312-7.596-3.473 7.596h6.785Zm1.373 3.17h-9.562l-2.489 5.426h-3.631l11.055-22.463 10.662 22.463h-3.689l-2.346-5.426ZM149.964 107.808v3.99c-1.949-1.634-3.963-2.449-6.049-2.449-2.295 0-4.229.826-5.799 2.475-1.582 1.642-2.371 3.646-2.371 6.019 0 2.344.789 4.323 2.371 5.932 1.58 1.611 3.52 2.414 5.815 2.414 1.189 0 2.193-.189 3.021-.578.467-.19.947-.453 1.443-.781.495-.33 1.022-.725 1.569-1.186v4.07c-1.932 1.097-3.953 1.643-6.076 1.643-3.194 0-5.916-1.113-8.176-3.34-2.244-2.246-3.369-4.955-3.369-8.131 0-2.843.939-5.384 2.82-7.607 2.316-2.734 5.309-4.094 8.982-4.094 2.008 0 3.946.537 5.819 1.623ZM168.21 117.718c0 2.469.828 4.495 2.488 6.086 1.651 1.592 3.555 2.385 5.717 2.385 2.34 0 4.32-.809 5.93-2.43 1.611-1.636 2.414-3.63 2.414-5.982 0-2.377-.791-4.373-2.385-5.984-1.582-1.618-3.541-2.428-5.877-2.428-2.32 0-4.283.81-5.887 2.428-1.599 1.599-2.4 3.576-2.4 5.925Zm-3.4-.033c0-3.144 1.15-5.847 3.457-8.101 2.298-2.258 5.056-3.389 8.275-3.389 3.184 0 5.914 1.141 8.189 3.418 2.288 2.275 3.428 5.008 3.428 8.201 0 3.209-1.148 5.936-3.443 8.174-2.303 2.248-5.088 3.369-8.348 3.369-2.881 0-5.473-.996-7.767-2.992-2.524-2.209-3.791-5.104-3.791-8.68ZM204.253 128.955v-22.576l16.289 15.763v-15.525h3.371v22.414l-16.291-15.715v15.639h-3.369ZM4.718 160c-.71 0-1.356-.12-1.937-.358a4.379 4.379 0 0 1-1.488-.988 4.406 4.406 0 0 1-.956-1.483A4.975 4.975 0 0 1 0 155.319v-.025c0-.633.115-1.236.347-1.808a4.588 4.588 0 0 1 2.467-2.522 4.682 4.682 0 0 1 1.892-.376c.398 0 .76.028 1.085.083.325.057.626.137.903.242.278.103.54.231.787.383s.487.327.722.526l-1.015 1.21a5.524 5.524 0 0 0-.533-.403 3.18 3.18 0 0 0-.572-.306 3.5 3.5 0 0 0-.656-.195 4.075 4.075 0 0 0-.786-.072c-.416 0-.805.087-1.164.261-.36.174-.672.406-.936.697a3.22 3.22 0 0 0-.624 1.023c-.152.39-.228.802-.228 1.237v.025c0 .47.074.904.221 1.303.147.4.357.743.629 1.029.272.288.596.513.972.678.376.165.798.247 1.265.247a3.79 3.79 0 0 0 1.212-.189c.376-.126.703-.294.979-.503v-1.713H4.641v-1.391h3.874v3.823a7.04 7.04 0 0 1-.748.546 5.788 5.788 0 0 1-.884.455 5.707 5.707 0 0 1-2.165.416ZM15.145 150.744h1.585v7.656h4.785v1.443h-6.37v-9.099ZM33.253 156.229l-1.573-3.64-1.56 3.64h3.133Zm-2.288-5.551h1.482l4.004 9.165h-1.69l-.923-2.197h-4.303l-.936 2.197h-1.638l4.004-9.165ZM45.759 159.973a5.743 5.743 0 0 1-2.015-.357 5.5 5.5 0 0 1-1.781-1.099l.962-1.143c.442.38.888.673 1.339.877.451.204.962.305 1.534.305.494 0 .886-.103 1.177-.311a.976.976 0 0 0 .435-.832v-.027c0-.164-.028-.309-.085-.435a.945.945 0 0 0-.312-.358 2.491 2.491 0 0 0-.626-.311 8.56 8.56 0 0 0-1.036-.286 10.534 10.534 0 0 1-1.297-.384 3.48 3.48 0 0 1-.951-.521 1.998 1.998 0 0 1-.587-.747c-.135-.295-.202-.65-.202-1.066v-.025a2.455 2.455 0 0 1 .87-1.905c.271-.229.597-.41.977-.54a3.84 3.84 0 0 1 1.247-.195c.667 0 1.268.098 1.8.293a5.335 5.335 0 0 1 1.502.851l-.858 1.209a5.582 5.582 0 0 0-1.235-.695 3.357 3.357 0 0 0-1.235-.241c-.468 0-.832.104-1.092.312-.26.208-.39.464-.39.767v.026c0 .174.03.328.091.462a.907.907 0 0 0 .333.364c.16.108.382.21.664.305.283.096.641.196 1.075.299.479.122.902.256 1.271.403.37.148.676.328.919.539.244.213.428.46.554.742.126.282.189.609.189.981v.026c0 .425-.079.806-.239 1.144-.158.338-.38.624-.664.858a2.899 2.899 0 0 1-1.022.534 4.494 4.494 0 0 1-1.312.181ZM58.629 159.973a5.743 5.743 0 0 1-2.015-.357 5.5 5.5 0 0 1-1.781-1.099l.962-1.143c.442.38.889.673 1.339.877.451.204.962.305 1.534.305.494 0 .886-.103 1.177-.311a.976.976 0 0 0 .435-.832v-.027c0-.164-.028-.309-.085-.435a.945.945 0 0 0-.312-.358 2.491 2.491 0 0 0-.626-.311 8.56 8.56 0 0 0-1.036-.286 10.534 10.534 0 0 1-1.297-.384 3.48 3.48 0 0 1-.951-.521 1.998 1.998 0 0 1-.587-.747c-.135-.295-.202-.65-.202-1.066v-.025a2.455 2.455 0 0 1 .87-1.905c.271-.229.597-.41.977-.54a3.84 3.84 0 0 1 1.247-.195c.667 0 1.268.098 1.801.293a5.344 5.344 0 0 1 1.501.851l-.858 1.209a5.56 5.56 0 0 0-1.235-.695 3.353 3.353 0 0 0-1.235-.241c-.468 0-.832.104-1.092.312-.26.208-.39.464-.39.767v.026c0 .174.03.328.091.462a.907.907 0 0 0 .333.364c.16.108.382.21.664.305.283.096.641.196 1.076.299.478.122.901.256 1.271.403.369.148.675.328.918.539.244.213.428.46.554.742.126.282.189.609.189.981v.026c0 .425-.079.806-.239 1.144-.158.338-.38.624-.664.858a2.899 2.899 0 0 1-1.022.534 4.494 4.494 0 0 1-1.312.181ZM76.842 150.744h1.586v9.099h-1.586zM88.62 159.973a5.743 5.743 0 0 1-2.015-.357 5.49 5.49 0 0 1-1.781-1.099l.962-1.143c.442.38.888.673 1.339.877.451.204.962.305 1.534.305.494 0 .886-.103 1.176-.311a.977.977 0 0 0 .436-.832v-.027c0-.164-.028-.309-.085-.435a.954.954 0 0 0-.312-.358 2.491 2.491 0 0 0-.626-.311 8.56 8.56 0 0 0-1.036-.286 10.534 10.534 0 0 1-1.297-.384 3.502 3.502 0 0 1-.952-.521 2.005 2.005 0 0 1-.586-.747c-.135-.295-.202-.65-.202-1.066v-.025a2.455 2.455 0 0 1 .87-1.905c.271-.229.597-.41.977-.54.381-.13.796-.195 1.247-.195.667 0 1.268.098 1.8.293a5.335 5.335 0 0 1 1.502.851l-.858 1.209a5.582 5.582 0 0 0-1.235-.695 3.357 3.357 0 0 0-1.235-.241c-.468 0-.832.104-1.092.312-.26.208-.39.464-.39.767v.026c0 .174.03.328.091.462a.9.9 0 0 0 .333.364c.16.108.382.21.664.305.282.096.641.196 1.075.299.478.122.902.256 1.271.403.369.148.676.328.919.539.243.213.428.46.554.742.126.282.189.609.189.981v.026c0 .425-.08.806-.239 1.144-.159.338-.38.624-.664.858a2.899 2.899 0 0 1-1.022.534 4.494 4.494 0 0 1-1.312.181ZM106.742 150.744h6.734v1.442h-5.148v2.34h4.563v1.443h-4.563v2.431h5.213v1.443h-6.799v-9.099ZM119.223 150.744h1.767l2.742 6.993 2.731-6.993h1.727l-3.781 9.165h-1.404l-3.782-9.165ZM134.302 150.744h6.733v1.442h-5.147v2.34h4.563v1.443h-4.563v2.431h5.214v1.443h-6.8v-9.099ZM151.496 155.254c.572 0 1.029-.136 1.368-.411.339-.274.509-.646.509-1.116v-.026c0-.496-.166-.872-.496-1.129-.33-.257-.795-.386-1.395-.386h-2.334v3.068h2.348Zm-3.934-4.51h4.056c.571 0 1.079.08 1.521.24.442.16.81.384 1.105.669.242.252.429.542.559.871.131.33.195.693.195 1.093v.025c0 .373-.055.709-.162 1.008a2.647 2.647 0 0 1-.449.793 2.712 2.712 0 0 1-.682.585 3.41 3.41 0 0 1-.878.37l2.457 3.445h-1.886l-2.242-3.172h-2.008v3.172h-1.586v-9.099ZM164.189 156.255l-3.615-5.511h1.886l2.548 4.029 2.574-4.029h1.833l-3.614 5.472v3.627h-1.612v-3.588ZM177.604 152.225h-2.885v-1.481h7.383v1.481h-2.885v7.618h-1.613v-7.618ZM188.343 150.744h1.586v3.782h4.368v-3.782h1.586v9.099h-1.586v-3.835h-4.368v3.835h-1.586v-9.099ZM202.863 150.744h1.586v9.099h-1.586zM211.443 150.744h1.48l4.864 6.292v-6.292h1.586v9.099h-1.336l-5.008-6.473v6.473h-1.586v-9.099ZM230.58 160c-.711 0-1.356-.12-1.937-.358a4.364 4.364 0 0 1-1.489-.988 4.404 4.404 0 0 1-.955-1.483 4.976 4.976 0 0 1-.339-1.852v-.025c0-.633.117-1.236.348-1.808a4.604 4.604 0 0 1 .975-1.501c.419-.429.916-.77 1.492-1.021a4.688 4.688 0 0 1 1.891-.376c.399 0 .761.028 1.086.083.325.057.626.137.904.242.277.103.54.231.786.383.247.152.488.327.721.526l-1.013 1.21a5.65 5.65 0 0 0-.533-.403 3.222 3.222 0 0 0-.573-.306 3.5 3.5 0 0 0-.656-.195 4.06 4.06 0 0 0-.786-.072 2.64 2.64 0 0 0-1.164.261c-.36.174-.671.406-.936.697-.264.29-.472.632-.624 1.023-.151.39-.227.802-.227 1.237v.025c0 .47.073.904.22 1.303.147.4.357.743.629 1.029.273.288.597.513.973.678.376.165.797.247 1.265.247.431 0 .836-.063 1.212-.189a3.41 3.41 0 0 0 .979-.503v-1.713h-2.327v-1.391h3.874v3.823a7.04 7.04 0 0 1-.748.546 5.742 5.742 0 0 1-.884.455 5.696 5.696 0 0 1-2.164.416ZM236.194 108.898a.67.67 0 0 0-.213-.507.767.767 0 0 0-.551-.202h-.788v1.418h.788a.767.767 0 0 0 .551-.202.67.67 0 0 0 .213-.507Zm.979 3.252h-.979l-.957-1.857h-.595v1.857h-.862v-4.693h1.764c.289 0 .549.065.779.196a1.434 1.434 0 0 1 .733 1.242c0 .318-.086.586-.257.805-.171.22-.396.376-.675.47l1.049 1.98Zm1.582-2.338c0-.644-.153-1.238-.46-1.781a3.416 3.416 0 0 0-1.256-1.286 3.363 3.363 0 0 0-1.75-.472 3.419 3.419 0 0 0-2.471 1.028 3.48 3.48 0 0 0-.743 1.14 3.613 3.613 0 0 0-.264 1.371c0 .649.155 1.243.463 1.784a3.46 3.46 0 0 0 1.258 1.284 3.389 3.389 0 0 0 1.757.471 3.426 3.426 0 0 0 3.006-1.758c.307-.543.46-1.136.46-1.781Zm.879 0c0 .582-.114 1.141-.34 1.676-.227.535-.536 1-.931 1.394a4.33 4.33 0 0 1-1.393.932 4.244 4.244 0 0 1-1.675.34 4.255 4.255 0 0 1-1.672-.337 4.323 4.323 0 0 1-2.333-2.329 4.249 4.249 0 0 1-.34-1.676c0-.582.113-1.141.34-1.676a4.323 4.323 0 0 1 2.333-2.329 4.273 4.273 0 0 1 1.672-.337c.582 0 1.14.114 1.675.34.534.227.999.537 1.393.932.395.394.704.859.931 1.394.226.535.34 1.094.34 1.676ZM243.3 152.001a.452.452 0 0 0-.143-.341.518.518 0 0 0-.371-.136h-.528v.952h.528a.518.518 0 0 0 .371-.136.45.45 0 0 0 .143-.339Zm.657 2.182h-.657l-.643-1.247h-.399v1.247h-.579v-3.15h1.184c.195 0 .368.044.524.132a.959.959 0 0 1 .491.833.858.858 0 0 1-.172.541.942.942 0 0 1-.453.315l.704 1.329Zm1.062-1.569a2.39 2.39 0 0 0-.309-1.196 2.286 2.286 0 0 0-2.018-1.18 2.295 2.295 0 0 0-1.659.69 2.329 2.329 0 0 0-.499.765 2.431 2.431 0 0 0-.177.921 2.375 2.375 0 0 0 1.156 2.059c.356.211.75.317 1.179.317.427 0 .819-.106 1.175-.317.357-.211.638-.499.843-.864.206-.364.309-.763.309-1.195Zm.589 0a2.949 2.949 0 0 1-.852 2.061 2.916 2.916 0 0 1-.936.625 2.867 2.867 0 0 1-2.247.002 2.88 2.88 0 0 1-1.565-1.563 2.847 2.847 0 0 1-.229-1.125c0-.391.076-.766.229-1.125a2.883 2.883 0 0 1 1.565-1.564 2.866 2.866 0 0 1 1.123-.226 2.949 2.949 0 0 1 2.06.853 2.942 2.942 0 0 1 .852 2.062Z" style="fill:#231f20;fill-rule:nonzero" transform="translate(0 -.004)"></path></svg> 